<svg xmlns="http://www.w3.org/2000/svg" viewBox="0 0 35.14 35.13"><g id="Capa_2" data-name="Capa 2"><g id="Capa_1-2" data-name="Capa 1"><path d="M24.81,0H10.32Q.75.77,0,10.33V24.82c.52,6.43,4,9.89,10.53,10.31H24.59c6.6-.43,10.1-3.94,10.55-10.54v-14C34.7,4,31.24.52,24.81,0Zm4,31c-2.56,1.42-7.82,1.1-11.64,1.1-5.1,0-11,.23-12.95-3.29C2.39,25.6,2.34,9,4.39,5.94,5.84,3.78,8.25,3.52,12.07,3.3,19.65,2.85,28.13,2,30.74,5.94c1.47,2.2,1.33,8.31,1.33,11.41C32.07,23.09,32.44,28.9,28.77,31Z" fill="#fff"/><path d="M16,8.79A8.72,8.72,0,0,0,8.57,18.88c1.25,10.22,16.91,9.72,18-.21A8.85,8.85,0,0,0,16,8.79ZM17.78,23.5C10.63,23.75,9.52,13,16.7,11.86,25.05,10.59,25.39,23.23,17.78,23.5Z" fill="#fff"/><circle cx="27.02" cy="8.36" r="2.24" fill="#fff"/></g></g></svg>