<?xml version="1.0" encoding="UTF-8"?><svg id="Capa_2" xmlns="http://www.w3.org/2000/svg" viewBox="0 0 94.58 36.99"><g id="Capa_1-2"><g><path d="M7.14,36.46c-.1,0-.16-.07-.16-.21l.05-14.88L.01,.21C-.02,.07,.03,0,.17,0H5.98c.17,0,.28,.07,.31,.21l3.88,14.09L14.1,.21C14.14,.07,14.23,0,14.37,0h5.87c.14,0,.19,.07,.16,.21l-7.07,20.96,.05,15.09c0,.14-.07,.21-.21,.21H7.14Z" fill="#004e62"/><path d="M32.91,36.99c-1.85,0-3.56-.48-5.13-1.44-1.57-.96-2.82-2.24-3.75-3.85-.93-1.61-1.39-3.37-1.39-5.29l.1-26.2c0-.14,.07-.21,.21-.21h5.87c.14,0,.21,.07,.21,.21V26.41c0,1.19,.37,2.19,1.13,3.01,.75,.82,1.67,1.23,2.75,1.23s2.05-.41,2.8-1.23c.75-.82,1.13-1.82,1.13-3.01V.21c0-.14,.07-.21,.21-.21h5.87c.14,0,.21,.07,.21,.21l.1,26.2c0,1.96-.46,3.74-1.39,5.34-.93,1.61-2.17,2.88-3.72,3.82-1.55,.94-3.29,1.41-5.21,1.41" fill="#004e62"/><path d="M47.58,36.46c-.14,0-.21-.09-.21-.26l.11-35.99c0-.14,.07-.21,.21-.21h6.39c.14,0,.26,.07,.37,.21l4.77,6.92L63.98,.21c.1-.14,.23-.21,.37-.21h6.44c.14,0,.21,.07,.21,.21l.11,35.99c0,.18-.07,.26-.21,.26h-5.92c-.14,0-.21-.09-.21-.26l-.05-26.72-5.5,7.96-5.45-7.96-.05,26.72c0,.18-.07,.26-.21,.26h-5.92Z" fill="#004e62"/><path d="M73.72,36.2L80.22,.21c.03-.14,.12-.21,.26-.21h7.6c.14,0,.23,.07,.26,.21l6.23,35.99c.03,.18-.03,.26-.21,.26h-5.82c-.14,0-.23-.09-.26-.26l-.58-3.82h-7.12l-.58,3.82c-.04,.18-.12,.26-.26,.26h-5.82c-.14,0-.21-.09-.21-.26m7.91-9.43h5.03l-2.15-14.72-.31-1.94-.21,1.94-2.36,14.72Z" fill="#004e62"/></g></g></svg>