<?xml version="1.0" encoding="UTF-8"?><svg id="Capa_2" xmlns="http://www.w3.org/2000/svg" viewBox="0 0 263.48 550.9"><g id="Capa_1-2"><g opacity=".3"><polygon points="158.16 17.97 158.16 41.49 161.14 41.49 161.14 17.97 180.73 2.33 178.87 0 159.65 15.35 140.43 0 138.56 2.33 158.16 17.97" fill="#004e62"/><polygon points="102.83 17.97 102.83 41.49 105.81 41.49 105.81 17.97 125.41 2.33 123.55 0 104.32 15.35 85.1 0 83.24 2.33 102.83 17.97" fill="#004e62"/><polygon points="240.91 64.28 240.91 87.8 243.89 87.8 243.89 64.28 263.48 48.64 261.62 46.31 242.4 61.66 223.17 46.31 221.31 48.64 240.91 64.28" fill="#004e62"/><polygon points="185.58 64.28 185.58 87.8 188.56 87.8 188.56 64.28 208.15 48.64 206.29 46.31 187.07 61.66 167.85 46.31 165.98 48.64 185.58 64.28" fill="#004e62"/><polygon points="130.25 64.28 130.25 87.8 133.23 87.8 133.23 64.28 152.83 48.64 150.97 46.31 131.74 61.66 112.52 46.31 110.66 48.64 130.25 64.28" fill="#004e62"/><polygon points="74.92 64.28 74.92 87.8 77.9 87.8 77.9 64.28 97.5 48.64 95.64 46.31 76.41 61.66 57.19 46.31 55.33 48.64 74.92 64.28" fill="#004e62"/><polygon points="213.49 110.59 213.49 134.11 216.47 134.11 216.47 110.59 236.06 94.95 234.2 92.62 214.98 107.97 195.75 92.62 193.89 94.95 213.49 110.59" fill="#004e62"/><polygon points="158.16 110.59 158.16 134.11 161.14 134.11 161.14 110.59 180.73 94.95 178.87 92.62 159.65 107.97 140.43 92.62 138.56 94.95 158.16 110.59" fill="#004e62"/><polygon points="102.83 110.59 102.83 134.11 105.81 134.11 105.81 110.59 125.41 94.95 123.55 92.62 104.32 107.97 85.1 92.62 83.24 94.95 102.83 110.59" fill="#004e62"/><polygon points="47.5 110.59 47.5 134.11 50.48 134.11 50.48 110.59 70.08 94.95 68.22 92.62 48.99 107.97 29.77 92.62 27.91 94.95 47.5 110.59" fill="#004e62"/><polygon points="240.91 156.9 240.91 180.42 243.89 180.42 243.89 156.9 263.48 141.26 261.62 138.93 242.4 154.28 223.17 138.93 221.31 141.26 240.91 156.9" fill="#004e62"/><polygon points="130.25 156.9 130.25 180.42 133.23 180.42 133.23 156.9 152.83 141.26 150.97 138.93 131.74 154.28 112.52 138.93 110.66 141.26 130.25 156.9" fill="#004e62"/><polygon points="74.92 156.9 74.92 180.42 77.9 180.42 77.9 156.9 97.5 141.26 95.64 138.93 76.41 154.28 57.19 138.93 55.33 141.26 74.92 156.9" fill="#004e62"/><polygon points="19.59 156.9 19.59 180.42 22.58 180.42 22.58 156.9 42.17 141.26 40.31 138.93 21.08 154.28 1.86 138.93 0 141.26 19.59 156.9" fill="#004e62"/><polygon points="213.49 203.21 213.49 226.73 216.47 226.73 216.47 203.21 236.06 187.57 234.2 185.24 214.98 200.59 195.75 185.24 193.89 187.57 213.49 203.21" fill="#004e62"/><polygon points="158.16 203.21 158.16 226.73 161.14 226.73 161.14 203.21 180.73 187.57 178.87 185.24 159.65 200.59 140.43 185.24 138.56 187.57 158.16 203.21" fill="#004e62"/><polygon points="102.83 203.21 102.83 226.73 105.81 226.73 105.81 203.21 125.41 187.57 123.55 185.24 104.32 200.59 85.1 185.24 83.24 187.57 102.83 203.21" fill="#004e62"/><polygon points="240.91 249.52 240.91 273.04 243.89 273.04 243.89 249.52 263.48 233.88 261.62 231.55 242.4 246.9 223.17 231.55 221.31 233.88 240.91 249.52" fill="#004e62"/><polygon points="185.58 249.52 185.58 273.04 188.56 273.04 188.56 249.52 208.15 233.88 206.29 231.55 187.07 246.9 167.85 231.55 165.98 233.88 185.58 249.52" fill="#004e62"/><polygon points="130.25 249.52 130.25 273.04 133.23 273.04 133.23 249.52 152.83 233.88 150.97 231.55 131.74 246.9 112.52 231.55 110.66 233.88 130.25 249.52" fill="#004e62"/><polygon points="74.92 249.52 74.92 273.04 77.9 273.04 77.9 249.52 97.5 233.88 95.64 231.55 76.41 246.9 57.19 231.55 55.33 233.88 74.92 249.52" fill="#004e62"/><polygon points="19.59 249.52 19.59 273.04 22.58 273.04 22.58 249.52 42.17 233.88 40.31 231.55 21.08 246.9 1.86 231.55 0 233.88 19.59 249.52" fill="#004e62"/><polygon points="213.49 295.83 213.49 319.35 216.47 319.35 216.47 295.83 236.06 280.19 234.2 277.86 214.98 293.21 195.75 277.86 193.89 280.19 213.49 295.83" fill="#004e62"/><polygon points="158.16 295.83 158.16 319.35 161.14 319.35 161.14 295.83 180.73 280.19 178.87 277.86 159.65 293.21 140.43 277.86 138.56 280.19 158.16 295.83" fill="#004e62"/><polygon points="102.83 295.83 102.83 319.35 105.81 319.35 105.81 295.83 125.41 280.19 123.55 277.86 104.32 293.21 85.1 277.86 83.24 280.19 102.83 295.83" fill="#004e62"/><polygon points="47.5 295.83 47.5 319.35 50.48 319.35 50.48 295.83 70.08 280.19 68.22 277.86 48.99 293.21 29.77 277.86 27.91 280.19 47.5 295.83" fill="#004e62"/><polygon points="240.91 342.14 240.91 365.66 243.89 365.66 243.89 342.14 263.48 326.5 261.62 324.17 242.4 339.52 223.17 324.17 221.31 326.5 240.91 342.14" fill="#004e62"/><polygon points="185.58 342.14 185.58 365.66 188.56 365.66 188.56 342.14 208.15 326.5 206.29 324.17 187.07 339.52 167.85 324.17 165.98 326.5 185.58 342.14" fill="#004e62"/><polygon points="130.25 342.14 130.25 365.66 133.23 365.66 133.23 342.14 152.83 326.5 150.97 324.17 131.74 339.52 112.52 324.17 110.66 326.5 130.25 342.14" fill="#004e62"/><polygon points="19.59 342.14 19.59 365.66 22.58 365.66 22.58 342.14 42.17 326.5 40.31 324.17 21.08 339.52 1.86 324.17 0 326.5 19.59 342.14" fill="#004e62"/><polygon points="213.49 388.45 213.49 411.97 216.47 411.97 216.47 388.45 236.06 372.81 234.2 370.48 214.98 385.83 195.75 370.48 193.89 372.81 213.49 388.45" fill="#004e62"/><polygon points="158.16 388.45 158.16 411.97 161.14 411.97 161.14 388.45 180.73 372.81 178.87 370.48 159.65 385.83 140.43 370.48 138.56 372.81 158.16 388.45" fill="#004e62"/><polygon points="102.83 388.45 102.83 411.97 105.81 411.97 105.81 388.45 125.41 372.81 123.55 370.48 104.32 385.83 85.1 370.48 83.24 372.81 102.83 388.45" fill="#004e62"/><polygon points="47.5 388.45 47.5 411.97 50.48 411.97 50.48 388.45 70.08 372.81 68.22 370.48 48.99 385.83 29.77 370.48 27.91 372.81 47.5 388.45" fill="#004e62"/><polygon points="240.91 434.76 240.91 458.28 243.89 458.28 243.89 434.76 263.48 419.12 261.62 416.79 242.4 432.14 223.17 416.79 221.31 419.12 240.91 434.76" fill="#004e62"/><polygon points="185.58 434.76 185.58 458.28 188.56 458.28 188.56 434.76 208.15 419.12 206.29 416.79 187.07 432.14 167.85 416.79 165.98 419.12 185.58 434.76" fill="#004e62"/><polygon points="130.25 434.76 130.25 458.28 133.23 458.28 133.23 434.76 152.83 419.12 150.97 416.79 131.74 432.14 112.52 416.79 110.66 419.12 130.25 434.76" fill="#004e62"/><polygon points="74.92 434.76 74.92 458.28 77.9 458.28 77.9 434.76 97.5 419.12 95.64 416.79 76.41 432.14 57.19 416.79 55.33 419.12 74.92 434.76" fill="#004e62"/><polygon points="19.59 434.76 19.59 458.28 22.58 458.28 22.58 434.76 42.17 419.12 40.31 416.79 21.08 432.14 1.86 416.79 0 419.12 19.59 434.76" fill="#004e62"/><polygon points="158.16 481.07 158.16 504.59 161.14 504.59 161.14 481.07 180.73 465.43 178.87 463.1 159.65 478.45 140.43 463.1 138.56 465.43 158.16 481.07" fill="#004e62"/><polygon points="102.83 481.07 102.83 504.59 105.81 504.59 105.81 481.07 125.41 465.43 123.55 463.1 104.32 478.45 85.1 463.1 83.24 465.43 102.83 481.07" fill="#004e62"/><polygon points="185.58 527.38 185.58 550.9 188.56 550.9 188.56 527.38 208.15 511.74 206.29 509.41 187.07 524.76 167.85 509.41 165.98 511.74 185.58 527.38" fill="#004e62"/><polygon points="130.25 527.38 130.25 550.9 133.23 550.9 133.23 527.38 152.83 511.74 150.97 509.41 131.74 524.76 112.52 509.41 110.66 511.74 130.25 527.38" fill="#004e62"/><polygon points="74.92 527.38 74.92 550.9 77.9 550.9 77.9 527.38 97.5 511.74 95.64 509.41 76.41 524.76 57.19 509.41 55.33 511.74 74.92 527.38" fill="#004e62"/></g></g></svg>