<?xml version="1.0" encoding="UTF-8"?><svg id="Capa_2" xmlns="http://www.w3.org/2000/svg" viewBox="0 0 25.9 26.04"><g id="Capa_1-2"><g><path d="M16.36,19.11c-2.52-.09-6.54-2.08-9.29-6.86-.98-1.7-.84-3.63,.6-4.96,.48-.45,1.09-.34,1.66-.24,.14,.02,.29,.23,.36,.39,.37,.83,.73,1.67,1.05,2.52,.17,.45-.14,.87-.79,1.63-.21,.24-.25,.46-.09,.73,1.06,1.79,2.54,3.09,4.48,3.85,.29,.11,.5,.04,.68-.18,1.03-1.26,1.14-1.63,1.68-1.37,2.61,1.25,2.81,1.3,2.82,1.59,.09,2.2-1.93,2.99-3.15,2.9Z" fill="#fff" fill-rule="evenodd"/><path d="M0,26.04c.15-.56,.27-1.05,.4-1.54,.43-1.56,.87-3.12,1.27-4.69,.06-.23,.03-.54-.08-.75C-2.37,11.48,1.73,2.31,10.06,.35c7.57-1.77,14.38,3.34,15.62,10.17,1.29,7.13-3.37,13.9-10.44,15.14-2.81,.49-5.5,.07-8.06-1.17-.23-.11-.55-.14-.79-.09-3.42,.86-5.69,1.5-6.38,1.64Zm3.01-2.97c1.29-.33,2.47-.63,3.65-.96,.33-.09,.59-.04,.88,.13,2.22,1.28,4.61,1.76,7.15,1.35,5.86-.94,9.88-6.42,8.98-12.26-.93-6.05-6.61-10.11-12.6-9.02C3.81,3.64-.04,11.73,3.56,18.13c.4,.71,.51,1.29,.24,2.05-.32,.91-.52,1.86-.8,2.89Z" fill="#fff" fill-rule="evenodd"/></g></g></svg>