<svg id="whatsapp-icon-seeklogo.com" xmlns="http://www.w3.org/2000/svg" xmlns:xlink="http://www.w3.org/1999/xlink" width="76.547" height="76.89" viewBox="0 0 76.547 76.89">
  <defs>
    <linearGradient id="linear-gradient" x1="0.5" y1="1" x2="0.5" gradientUnits="objectBoundingBox">
      <stop offset="0" stop-color="#20b038"/>
      <stop offset="1" stop-color="#60d66a"/>
    </linearGradient>
  </defs>
  <path id="Path_7" data-name="Path 7" d="M65.394,11.174A38.117,38.117,0,0,0,5.407,57.147L0,76.89l20.2-5.3A38.088,38.088,0,0,0,38.417,76.23h.016a38.116,38.116,0,0,0,26.96-65.057ZM38.434,69.8h-.012A31.639,31.639,0,0,1,22.3,65.381l-1.157-.686L9.151,67.838l3.2-11.686-.754-1.2A31.68,31.68,0,1,1,38.434,69.8Z" fill="#e0e0e0"/>
  <path id="Path_8" data-name="Path 8" d="M27.875,94.458l5.16-18.841A36.373,36.373,0,1,1,64.552,93.828h-.016A36.361,36.361,0,0,1,47.156,89.4L27.875,94.458Z" transform="translate(-26.125 -19.759)" fill="url(#linear-gradient)"/>
  <rect id="Rectangle_3" data-name="Rectangle 3" width="42.807" height="40.108" transform="translate(17.009 18.288)" fill="none" opacity="0.08"/>
  <path id="Path_9" data-name="Path 9" d="M317.017,324.676c-.705-1.568-1.448-1.6-2.118-1.627-.549-.024-1.177-.022-1.8-.022a3.459,3.459,0,0,0-2.51,1.178,10.553,10.553,0,0,0-3.3,7.851c0,4.632,3.374,9.108,3.844,9.736s6.513,10.436,16.081,14.209c7.952,3.136,9.57,2.512,11.3,2.355s5.57-2.277,6.354-4.475.785-4.082.549-4.476-.863-.628-1.8-1.1-5.57-2.748-6.433-3.062-1.491-.471-2.118.472-2.431,3.061-2.98,3.689-1.1.708-2.04.237a25.75,25.75,0,0,1-7.57-4.672,28.355,28.355,0,0,1-5.237-6.519c-.549-.941-.059-1.451.413-1.921.423-.422.941-1.1,1.412-1.649a6.454,6.454,0,0,0,.941-1.57,1.733,1.733,0,0,0-.078-1.649C319.683,331.193,317.854,326.538,317.017,324.676Z" transform="translate(-288.001 -302.752)" fill="#fff" fill-rule="evenodd"/>
  <path id="Path_10" data-name="Path 10" d="M71.643,11.159A37.68,37.68,0,0,0,12.345,56.6L7,76.121l19.973-5.237a37.65,37.65,0,0,0,18,4.585h.016a37.678,37.678,0,0,0,26.651-64.31ZM44.992,69.108H44.98a31.276,31.276,0,0,1-15.938-4.364L27.9,64.066,16.046,67.173,19.21,55.622l-.745-1.184A31.316,31.316,0,1,1,44.992,69.108Z" transform="translate(-6.561 -0.107)" fill="#fff"/>
</svg>
